/* XPM */
static char * C:\Users\vinsk\Desktop\Koodaus\Hallacoin_master\share\pixmaps\hallacoin50000_derivatives\hallacoin50000_16_x_16_xpm[] = {
"16 16 155 2",
"  	c None",
". 	c #785711",
"+ 	c #D59718",
"@ 	c #E3A019",
"# 	c #F1AD1B",
"$ 	c #F1AC1A",
"% 	c #E2A018",
"& 	c #D69617",
"* 	c #795811",
"= 	c #BC8616",
"- 	c #E2A31A",
"; 	c #D29F1D",
"> 	c #BF8D18",
", 	c #CA9619",
"' 	c #CE9A1A",
") 	c #E1AA1F",
"! 	c #E2AA1F",
"~ 	c #DC9F19",
"{ 	c #BE8517",
"] 	c #BF8715",
"^ 	c #E0A61C",
"/ 	c #F5B923",
"( 	c #86600F",
"_ 	c #7D4E02",
": 	c #875400",
"< 	c #855300",
"[ 	c #5E3B00",
"} 	c #8C6610",
"| 	c #F4BA22",
"1 	c #DFA51C",
"2 	c #7D5811",
"3 	c #DCA018",
"4 	c #F6BA23",
"5 	c #F9BD22",
"6 	c #926910",
"7 	c #F0B62A",
"8 	c #DBAA37",
"9 	c #E0A421",
"0 	c #B37401",
"a 	c #553500",
"b 	c #D7A31C",
"c 	c #F2B721",
"d 	c #E4A71A",
"e 	c #7E5D10",
"f 	c #D89918",
"g 	c #E4AD1E",
"h 	c #FFC122",
"i 	c #FEC123",
"j 	c #B0831A",
"k 	c #FFC93E",
"l 	c #FECC4C",
"m 	c #FEC02F",
"n 	c #CB8703",
"o 	c #5D3901",
"p 	c #C29118",
"q 	c #FFC123",
"r 	c #DDA71F",
"s 	c #DA9A18",
"t 	c #E3A016",
"u 	c #FABD23",
"v 	c #E9B120",
"w 	c #AF8525",
"x 	c #A67A1E",
"y 	c #DFA21D",
"z 	c #9E7726",
"A 	c #D6920B",
"B 	c #714601",
"C 	c #D7A01C",
"D 	c #F4B922",
"E 	c #E3A117",
"F 	c #F4B11C",
"G 	c #FEC023",
"H 	c #C09427",
"I 	c #F0B52A",
"J 	c #CB9112",
"K 	c #FBBC29",
"L 	c #EB9C06",
"M 	c #8D5901",
"N 	c #E4AA1E",
"O 	c #F3B01C",
"P 	c #FFC023",
"Q 	c #FFC022",
"R 	c #DBA92D",
"S 	c #E5B12E",
"T 	c #B38318",
"U 	c #F4B725",
"V 	c #DD9406",
"W 	c #A9760E",
"X 	c #F3B11D",
"Y 	c #DF9E16",
"Z 	c #F8BB22",
"` 	c #D8A424",
" .	c #ECB328",
"..	c #CD9820",
"+.	c #E4AB23",
"@.	c #BB7703",
"#.	c #A97911",
"$.	c #F7BA22",
"%.	c #E09E16",
"&.	c #DD9C18",
"*.	c #FEC122",
"=.	c #C2931F",
"-.	c #B98310",
";.	c #D69A15",
">.	c #B47A08",
",.	c #895601",
"'.	c #674202",
").	c #E5AD1E",
"!.	c #DD9C17",
"~.	c #8E6710",
"{.	c #DDA31A",
"].	c #F9BD23",
"^.	c #CF9C1B",
"/.	c #6B4607",
"(.	c #CB9C34",
"_.	c #E29C08",
":.	c #D68C04",
"<.	c #A56B04",
"[.	c #9C6402",
"}.	c #664507",
"|.	c #F7BB23",
"1.	c #DBA01A",
"2.	c #8D6512",
"3.	c #CA8C16",
"4.	c #DFA61D",
"5.	c #DDA61F",
"6.	c #7C580C",
"7.	c #B98918",
"8.	c #715111",
"9.	c #664508",
"0.	c #DB9A0F",
"a.	c #BA840D",
"b.	c #E2AA1E",
"c.	c #E1A81E",
"d.	c #CB8F16",
"e.	c #CD9116",
"f.	c #D79D1A",
"g.	c #E4AD1F",
"h.	c #E9B021",
"i.	c #D19D1F",
"j.	c #CE9D1E",
"k.	c #EBB020",
"l.	c #E8B020",
"m.	c #DBA11B",
"n.	c #CE9017",
"o.	c #926714",
"p.	c #DE9C18",
"q.	c #DB9C17",
"r.	c #F6B51F",
"s.	c #F6B41F",
"t.	c #DA9B17",
"u.	c #E09E19",
"v.	c #946813",
"w.	c #745410",
"x.	c #765210",
"                                ",
"        . + @ # $ % & *         ",
"      = - ; > , ' ) ! ~ {       ",
"    ] ^ / ( _ : < [ } | 1 ]     ",
"  2 3 4 5 6 7 8 9 0 a b c d e   ",
"  f g h i j k l m n o p q r s   ",
"  t u q v w x y z A B C q D E   ",
"  F G h q H I J K L M N h i F   ",
"  O P Q q R S T U V W G q q X   ",
"  Y Z q P `  ...+.@.#.P G $.%.  ",
"  &.g *.Q =.-.;.>.,.'.).q ) !.  ",
"  ~.{.].^./.(._.:.<.[.}.|.1.2.  ",
"    3.4.5.6.7.8.9.0.a.b.c.d.    ",
"      e.f.g.h.i.j.k.l.m.n.      ",
"        o.p.q.r.s.t.u.v.        ",
"              w.x.              "};
