/* XPM */
static char *_dcbe3caa7cd41b9dcb97bc4750943026ho7tN8J119zNqi1[] = {
/* columns rows colors chars-per-pixel */
"16 16 154 2 ",
"   c None",
".  c black",
"X  c #100600",
"o  c #231100",
"O  c #241300",
"+  c #311B00",
"@  c #351C00",
"#  c #322001",
"$  c #302102",
"%  c #322202",
"&  c #3A2000",
"*  c #412A00",
"=  c #442800",
"-  c #4A2C00",
";  c #4D2D00",
":  c #523500",
">  c #5B3800",
",  c #5F3B00",
"<  c #633900",
"1  c #603B00",
"2  c #613C00",
"3  c #663D00",
"4  c #664300",
"5  c #624306",
"6  c #654607",
"7  c #694100",
"8  c #6B4100",
"9  c #684200",
"0  c #6A4200",
"q  c #694400",
"w  c #734F05",
"e  c #794B00",
"r  c #7B4D00",
"t  c #704F0C",
"y  c #7D5709",
"u  c #824D00",
"i  c #864F00",
"p  c #835200",
"a  c #875100",
"s  c #885200",
"d  c #885900",
"f  c #8C5F05",
"g  c #805A0C",
"h  c #8E5C08",
"j  c #945C00",
"k  c #955D00",
"l  c #985E00",
"z  c #995F00",
"x  c #9F5F00",
"c  c #8E6100",
"v  c #8E6002",
"b  c #8A610C",
"n  c #8D630D",
"m  c #976000",
"M  c #976703",
"N  c #9C6100",
"B  c #9E6200",
"V  c #9B6A04",
"C  c #996907",
"Z  c #9F7110",
"A  c #A16600",
"S  c #A76800",
"D  c #AA7000",
"F  c #AF7300",
"G  c #AF7600",
"H  c #A87305",
"J  c #AC7506",
"K  c #B77500",
"L  c #B07707",
"P  c #BA7400",
"I  c #B07800",
"U  c #BB7B00",
"Y  c #BA7E06",
"T  c #B1750B",
"R  c #AD7A13",
"E  c #AC7D18",
"W  c #BA7F1E",
"Q  c #C87D00",
"!  c #BC830E",
"~  c #BA8316",
"^  c #C28605",
"/  c #C48707",
"(  c #C0850D",
")  c #D18200",
"_  c #D88800",
"`  c #DB8B00",
"'  c #DF8F00",
"]  c #D48D0E",
"[  c #D29200",
"{  c #C08511",
"}  c #CC8E12",
"|  c #CE8916",
" . c #CC9119",
".. c #D0921A",
"X. c #E09000",
"o. c #E19100",
"O. c #E29200",
"+. c #E39300",
"@. c #E59500",
"#. c #E99900",
"$. c #EB9B00",
"%. c #ED9D00",
"&. c #E29B0C",
"*. c #ED9C08",
"=. c #F59E00",
"-. c #F0A000",
";. c #F1A100",
":. c #F5A500",
">. c #F6A700",
",. c #FAA300",
"<. c #FAA500",
"1. c #FCAD00",
"2. c #FFB30C",
"3. c #FFB30F",
"4. c #E1A01C",
"5. c #EBA518",
"6. c #F4A217",
"7. c #FAA511",
"8. c #FAA513",
"9. c #F9A715",
"0. c #FFB516",
"q. c #FBB11A",
"w. c #FFB71B",
"e. c #FCB11C",
"r. c #FCB11D",
"t. c #FEB31D",
"y. c #FFB61C",
"u. c #FFB81D",
"i. c #FFB91D",
"p. c #FFB81F",
"a. c #FFB91F",
"s. c #FFBA1E",
"d. c #CF8C23",
"f. c #DE9625",
"g. c #DD972C",
"h. c #DB9B36",
"j. c #FFBB20",
"k. c #EBA538",
"l. c #F7AC31",
"z. c #F7AB34",
"x. c #F7AD36",
"c. c #F9AE3A",
"v. c #F9AF3B",
"b. c #FFC22A",
"n. c #FFC73B",
"m. c #FFCE54",
"M. c #FFD570",
"N. c #FFDA83",
"B. c #FFE095",
"V. c #FFE29C",
"C. c #FFEBB8",
"Z. c #FFF2D4",
"A. c #FFF3D8",
"S. c #FFFBF3",
/* pixels */
"                                ",
"            x.8.*.] x.          ",
"        | o 0 Y w.L > 3 T       ",
"      K . b : , 0 0 w n = N     ",
"    g.+ E C +.#.+.+.r f $ @ d.  ",
"    i 5 w.C S.Z.A.N.k 0 e.g u   ",
"  h.2 4.s.I >.j.>.%.P 4 s.~ m c.",
"  9.H s.s.G 0.+._ 3.' d s.e.v 9.",
"  <.q.s.s.5.B.@.1.C.Q / s.y.r.,.",
"  8.3.s.s.y.b.+.#.n.j y.s.s.J 8.",
"  c.A ..s.y.D m.j.Q e } s.R o k.",
"    x y s.! k ;.0.k S p { 6 <   ",
"    W & t * _ V.m %.M.> $ X f.  ",
"      N 0  .! U $ J v H ; )     ",
"        h s =.3.j.M - s 6.      ",
"            l.&.[ / l.          "
};
