/* XPM */
static char *_28d4101566743a09021b3151437e9e8auqeApUukHujLrue[] = {
/* columns rows colors chars-per-pixel */
"64 64 233 2 ",
"   c None",
".  c black",
"X  c #0E0600",
"o  c #170B00",
"O  c #1D1000",
"+  c #241300",
"@  c #271800",
"#  c #2B1800",
"$  c #2F1B00",
"%  c #362000",
"&  c #3B2400",
"*  c #412700",
"=  c #442B00",
"-  c #482C00",
";  c #4B2D00",
":  c #4F2E00",
">  c #4F3100",
",  c #553200",
"<  c #5A3600",
"1  c #553802",
"2  c #5F3900",
"3  c #5C3E04",
"4  c #633D00",
"5  c #673F00",
"6  c #5F4003",
"7  c #664302",
"8  c #6B4100",
"9  c #6E4400",
"0  c #6A4705",
"q  c #6F4B05",
"w  c #714500",
"e  c #764900",
"r  c #734F07",
"t  c #7A4C00",
"y  c #7E4E00",
"u  c #7C5406",
"i  c #825100",
"p  c #885300",
"a  c #8D5600",
"s  c #8F5900",
"d  c #805908",
"f  c #895F09",
"g  c #925A00",
"h  c #945C00",
"j  c #995F00",
"k  c #BB4F00",
"l  c #BC5100",
"z  c #9D6200",
"x  c #996807",
"c  c #93640A",
"v  c #9B6B0C",
"b  c #946C10",
"n  c #A06400",
"m  c #A46600",
"M  c #A96900",
"N  c #AC6C00",
"B  c #A06F0C",
"V  c #A6730B",
"C  c #A1700D",
"Z  c #AA750C",
"A  c #B27000",
"S  c #B67300",
"D  c #BB7500",
"F  c #BE7600",
"G  c #A47A16",
"H  c #B07B10",
"J  c #B57F12",
"K  c #C05500",
"L  c #C25600",
"P  c #C35A00",
"I  c #C75E00",
"U  c #C86000",
"Y  c #CA6300",
"T  c #CD6600",
"R  c #CF6900",
"E  c #D26C00",
"W  c #C17800",
"Q  c #C37B00",
"!  c #C67C00",
"~  c #C87D00",
"^  c #CA7E00",
"/  c #CF7D00",
"(  c #D57100",
")  c #D77400",
"_  c #D97700",
"`  c #DB7800",
"'  c #DE7B00",
"]  c #E07F00",
"[  c #B98110",
"{  c #BE8511",
"}  c #B38518",
"|  c #BB8A19",
" . c #CD8100",
".. c #CF8300",
"X. c #CA8B08",
"o. c #D48500",
"O. c #D78600",
"+. c #DB8A00",
"@. c #DC8C00",
"#. c #D39200",
"$. c #D9960C",
"%. c #C58912",
"&. c #CC8E13",
"*. c #C4911B",
"=. c #CF971C",
"-. c #D19115",
";. c #DA9816",
":. c #D49D1C",
">. c #E48400",
",. c #E78600",
"<. c #E08F00",
"1. c #E88800",
"2. c #EA8F00",
"3. c #E39300",
"4. c #E59600",
"5. c #EE9000",
"6. c #E99900",
"7. c #EC9C00",
"8. c #F19400",
"9. c #F49700",
"0. c #F59A00",
"q. c #F79E00",
"w. c #FB9D00",
"e. c #E19C16",
"r. c #DFA01C",
"t. c #D5A81B",
"y. c #F0A000",
"u. c #F5A500",
"i. c #FFA400",
"p. c #FAA505",
"a. c #F7A800",
"s. c #F9AA00",
"d. c #FBAB00",
"f. c #FEAD00",
"g. c #FFAF03",
"h. c #FDA90A",
"j. c #FFB300",
"k. c #FFB800",
"l. c #FFBA00",
"z. c #FFBD00",
"x. c #FFB10A",
"c. c #FFB30F",
"v. c #E6A017",
"b. c #E9A41B",
"n. c #F1A717",
"m. c #FFAE10",
"M. c #F2AA18",
"N. c #F5AC1A",
"B. c #FBAF19",
"V. c #FFB313",
"C. c #FFB618",
"Z. c #FEB21C",
"A. c #FFB81B",
"S. c #FFBA1A",
"D. c #FFBB1B",
"F. c #FFB91D",
"G. c #FFBB1E",
"H. c #DEA420",
"J. c #EAAC22",
"K. c #E8B126",
"L. c #EFB629",
"P. c #F6B121",
"I. c #F6B423",
"U. c #F5B725",
"Y. c #FFBC21",
"T. c #FFBF21",
"R. c #FFBF25",
"E. c #FFC200",
"W. c #FFC501",
"Q. c #FFC713",
"!. c #FFC017",
"~. c #FFC71D",
"^. c #FFC91F",
"/. c #FFC122",
"(. c #FFC325",
"). c #FFC627",
"_. c #FFC128",
"`. c #FFC32A",
"'. c #F9C02D",
"]. c #FFC928",
"[. c #FFC929",
"{. c #FFC92B",
"}. c #FFCB2A",
"|. c #FFC531",
" X c #FFCA33",
".X c #FFCB34",
"XX c #FFC738",
"oX c #FBC23E",
"OX c #FFCB39",
"+X c #FFCC39",
"@X c #FFCC3B",
"#X c #FFC83F",
"$X c #FFCC3C",
"%X c #FFCB43",
"&X c #FFC944",
"*X c #FFC947",
"=X c #FFCD47",
"-X c #FFCA48",
";X c #FFCB48",
":X c #FFCB4C",
">X c #FFCD4C",
",X c #FFCC4F",
"<X c #FFCE56",
"1X c #FFCF57",
"2X c #FFD056",
"3X c #FFD058",
"4X c #FFD258",
"5X c #FFD35B",
"6X c #FFD15E",
"7X c #FFD060",
"8X c #FFD264",
"9X c #FFD265",
"0X c #FFD368",
"qX c #FFD46B",
"wX c #FFD46D",
"eX c #FFD570",
"rX c #FFD571",
"tX c #FFD574",
"yX c #FFD776",
"uX c #FFDB83",
"iX c #FFDE8D",
"pX c #FFE095",
"aX c #FFE29A",
"sX c #FFE4A3",
"dX c #FFE7AC",
"fX c #FFE9B3",
"gX c #FFEDBD",
"hX c #FFEFC5",
"jX c #FFEFCA",
"kX c #FFF2D3",
"lX c #FFF6E1",
"zX c #FFF9EB",
"xX c white",
/* pixels */
"                                                                                                                                ",
"                                                                                                                                ",
"                                                      7X-X=XOX$X$XOX=X-X7X                                                      ",
"                                              <X+X!.j.i.0.5.1.,.,.1.5.9.i.j.!.+X:X                                              ",
"                                        7X.Xz.w.,.( R E E ( _ ` ` _ ) E E R E >.w.l..X<X                                        ",
"                                    <XQ.j.1.R U E >.0.m.F.T.(.).(.(./.F.m.q.1.E U T ,.f.Q.3X                                    ",
"                                  ).g.' U E 2.e.T.H.)./.Z.T.F.F.F.G.G.T./.r } ).V.5.E U ` f.Q.7X                                ",
"                              OXl.1.K R q.(.*.7 r = Z.Z.v F.F.F.F.F.H H e.= H { C H.J.p.( K ' l. X                              ",
"                            Q.i.U Y 6.*.H.c B C d c F.F.F.F.F.F.F.F.F.F.Z.H 1 3 0 q v f [.p.T I q.Q.                            ",
"                        *XE.5.k ] (.6 c . f = e.F.F.F.F.F.F.F.F.F.F.F.F.F.F.Z.H &.;.% . 3 G I.,.k ,.E.:X                        ",
"                      3Xz.' K q.K.b.A.c C C F.%.f 0 r q q r c u q f v %.n.F.F.F.F.Z.v &.c d d :.h.K ) l.&X                      ",
"                    3Xz.( K N.G 1 d Z.F.F.F.e.@ i n z j g w D M h a y 8 8 6 c e.F.F.F.F.Z.{ H q | D.I R l.%X                    ",
"                  7Xl.( I D.r . V q v.F.F.F.= i ! N M D j i Q F Q A D O.D g e * 7 -.F.F.F.F.H 0 @ =./.T R l.3X                  ",
"                  z.' K G.).n.c Z.F.F.F.F.C - n F h N h y M N a M p g F D F s 5 2 # B F.F.F.F.{ @ n.).).U ( z.tX                ",
"                W.5.K V.U.A.F.F.F.F.F.F.Z.# w % $ j Q z j O.+.D M g O.S 8 * @ 2 4 w + &.F.F.F.F.M.F.n.).F.P ,.E.                ",
"               Xi.k q.}.q = M.F.F.F.F.F.f 9 $ p <.5 = = = 4 5 < = - 5 - t D * @ 8 , 5 % F.F.F.F.F.e.@ B [.h.k 0.^.              ",
"            tXl.U >.K.;.B H F.F.F.F.F.F.% t $ `.xXwX6.+...D S D F Q A u.yXa.F # , 8 5 * J F.F.F.F.&.@ x v }.1.I j.8X            ",
"            Q.,.U T.%.f 0 Z.F.F.F.F.F.;.w > ^ hXG.6XiXfXhXgXgXjXkXhXiX|.d.q.7.w = j 5 2 & F.F.F.F.F.%.= 0 C [.R ' W.            ",
"          8Xf.P 0.b % & e.F.F.F.F.F.F.%.i e C.<X`.&X<X6X8X6X8X6XqX*X`.A.f.y.3., 2 g e w + B.F.F.F.F.A.-.u C (.h.K i.5X          ",
"          Q.' R J.{ c M.F.F.F.F.F.F.F.b., n T.XX`.#X<X8XwXrXrXwX8X`.`.T.V.a.N * j y t e & %.F.F.F.F.F.F.F.H 3 }.) ) E.          ",
"        rXf.U q.} @ Z F.F.F.F.F.F.F.F.F.$ j <X`.`.*X<XwXwXwXwXeXwX-XR.R.C.f.S % z y t e , v F.F.F.F.F.F.Z.= { r.h.I i.3X        ",
"        .X1.E (.;.d Z.F.F.F.F.F.F.F.F.F.# n tXXX<X3X8XwXwXwXwXwXwX&X`.R.F.f.3.% w g t e - Z F.F.F.F.F.F.F.-.{ H ).) O.[.        ",
"        l.R 2.U.B.F.F.F.F.F.F.F.F.F.F.F.@ a sXiXsXdXiXqXqX6X8X6X8XuXqX&X(.C.f.g @ z e t $ v.F.F.F.F.F.F.F.e.. q =.8.Y j.        ",
"      8Xw.U m.b . ;.F.F.F.F.F.F.F.F.F.F.B n xXY.u.u.g.sX<X<X-XpX6Xd.c.qXqXs.7.6.: - i e * F.F.F.F.F.F.F.F.F.{ # J C.Y 0.3X      ",
"      +X>.E J u - Z.F.F.F.F.F.F.F.F.F.F.r ..R.> t F A 7.iX`.iXT.! N p 8 <.g.a.A a & a - 1 F.F.F.F.F.F.F.F.F.F.H f )._ ' [.      ",
"      !.( >.} B c F.F.F.F.F.F.F.F.F.F.c < u.M a.4.O ..z C.aXy.a Q 5 ! u.p <.s.S h e @ : 7 A.F.F.F.F.F.F.F.F.Z.= d R.2.E l.      ",
"      j.R 0.).;.Z.F.F.F.F.F.F.F.F.F.F.q N qXC.3.3.y W S 7.xXM M F 2 N C.3.&XF.<.m % - A.w N.F.F.F.F.F.F.F.F.F.;.Y.(.p.T f.      ",
"    7Xi.E m.F.{ F.F.F.F.F.F.F.F.F.F.F.V * u.lX6...4.6.6.@.aXz q.<.n ..6.XX&XC.<.z , D f.4 M.F.F.F.F.F.F.F.F.F.Z.B T.C.E w.3X    ",
"    2X0.E A.T.F.F.F.F.F.F.F.F.F.F.F.F.F.X M kX8XeX8X8Xu.+.T.N V.<XT.T.&XV.Y.s.+.n w g u.e N.F.F.F.F.F.F.F.F.F.F.;.G.T.( 5.=X    ",
"    =X5.( T.G.F.F.F.F.F.F.F.F.F.F.F.F.F.f % wXuXeX1XaX`.+.V.z Y.(.uXtXT.Y.C.s.@.s e j 4.< F.F.F.F.F.F.F.F.F.F.F.F.F.(._ ,.OX    ",
"    OX1._ (.F.F.F.F.F.F.F.F.F.F.F.F.F.F.A.* R.pX6X8X6.^ 6.iXi O.eXqXwX&XY.s.c.A i t Q a C F.F.F.F.F.F.F.F.F.F.F.F.G.).' >..X    ",
"    $X,.` (.G.F.F.F.F.F.F.F.F.F.F.F.F.F.F.B a.fXqX&Xx.p R.uXp 2 T.aX<XF.Y.s.x.3.^ 8 z 3 F.F.F.F.F.F.F.F.F.F.F.F.F.F.).] ] .X    ",
"    $X,._ (.G.F.F.F.F.F.F.F.F.F.F.F.F.F.F.H 3.kX<X|.sX6.! F +.V.&XtXXXF.Y.V.f.V.<.4 % $.Y.A.A.Y.A.A.A.Y.Y.A.A.A.Y.Z.).] ] .X    ",
"    +X1._ ).G.F.F.F.F.F.F.F.F.F.F.F.F.F.F.;.D xXwXuXXXsXc.u.wXqXV.`.uX|.Y.V.s.A ~ = Z A.Y.A.A.Y.A.Y.A.A.A.A.Y.A.F.F.).' ,. X    ",
"    =X5.) T.F.F.F.F.F.F.F.F.F.F.F.F.F.F.F.B.z xXT.4.fXuXO.a ! rXkX^ +.pX#XY.4.5 O., Z.A.A.Z.A.A.A.A.Y.Z.A.Y.A.Y.c F.)._ ,.OX    ",
"    <X9.E F.Y.F.F.F.F.F.F.F.F.F.F.F.F.F.F.Z.M zX1Xx.S = 8 4 < % O.-Xc.XXC.Y.j i 3., e.Y.A.Y.Y.A.Y.Y.A.A.A.Y.A.A.-.F.T.( 5.=X    ",
"    wXi.E m.R.F.F.F.F.F.F.F.F.F.F.F.F.F.F.F.z lX`.C.6.p M z p i 7.1X8Xx.D ..Q ..+.< M.A.F.F.F.F.A.A.Y.Z.A.Y.Y.B 3 b.C.E q.3X    ",
"      j.R q.).F.F.F.F.F.F.F.F.F.F.F.F.F.F.F.i lXY.^ iXfX3.Q y.`.xXA @.xXS M 6.O.Q # N.A.F.F.F.F.A.Y.A.A.A.A.A.e.&.=.h.R f.      ",
"      !.E ,.[.F.F.F.F.F.F.F.F.F.F.F.F.F.F.F.r <XdXtX&X<XiXtX^ s.,X3.sX+.t 4.o.<.9 . B.F.F.F.F.F.A.A.Y.Y.Y.Y.A.q c R.2.E l.      ",
"      .X] ( ).D.Z.F.F.F.F.F.F.F.F.F.F.F.F.F.v.y jXiX#X&X,X|.<XtX*XiX<XQ ~ O.o.z - 2 d F.F.F.F.F.Y.A.A.A.A.A.;.@ 1 J.` _ ).      ",
"      3Xw.I V./.q F.F.F.F.F.F.F.F.F.F.F.F.F.F.[ * T.dX|.XX&X:X<X(.XX1X3.n O.M o z i = x F.F.F.F.F.F.F.F.F.F.H . V F.Y 8.5X      ",
"        l.T 5.}.Z.F.F.F.F.F.F.F.F.F.F.F.F.F.F.@ < e S 8XuX8X-XXX:XV.D 9 F M % a  .> M - B.F.F.F.F.F.F.F.F.Z.3 [ `.0.Y j.        ",
"        [.>.E ).F.e.F.F.F.F.F.F.F.F.F.F.F.F.6 2 ..C.2 8 A o.4.s.f.D - g y % n D M & N 9 3 F.F.F.F.F.F.F.F.Z.C 3 )._ ' ].        ",
"        8Xf.I p.b @ } F.F.F.F.F.F.F.F.F.F.[ . a.^ @.xX^ s e 5 y 8 5 e 9 8 F ! M - 2 V.- & q F.F.F.F.F.F.F.0 &.:.m.I i.,X        ",
"          W.` ( } 6 u F.F.F.F.F.F.F.F.F.-.O # +.`.& ,XiX`.-Xf.7.u.y.+.6.4.W F j $ u.x., & = = X.Z.F.F.F.Z 1 1 } ` ( E.          ",
"          2Xi.K p.*.7 c Z.F.F.F.F.F.F.&.+ y : 5 xXO.o @.8XR.|.`.yXy.F 3.o.Q ..% 6.:Xu., % 4 t o [ F.F.-.& 6 H.m.K w.=X          ",
"            Q.] T I.r B q F.F.F.F.B.H X > z p O f.xXs.> t y.8XR.s.Q o.@.@.6.$ S sXV.6.$ < p % r F.F.v.@ { c }.E ` E.            ",
"            rXj.I ,.`.= Z.Z.F.F.F.H + , > M N + 9 zXzXgXA 9 M F.C.O.+.f.O.@ M gXC.&X+.$ t # f A.F.F.{ @ C }.5.P f.3X            ",
"              {.w.k p.}.Z.3 C F.F.F.x . O 7 , O > sXyXuXxXzX4 $ ..a.O.8 , <.gX&XF.dX..o # [ F.F.F.C &.B.[.V.l 8.Q.              ",
"                E.,.K A.=.. > { Z.F.F.;.* . - t e tXyXzXfX<.= . . # O ! tXgXY.).dXgX4 1 N.F.F.F.d f @ T./.I ' E.                ",
"                  z.) I /.| @ 6 C Z.F.F.F.H > & 9 hXzX4.7 . . # o . . F.zXrXfX6X+.9 [ F.F.F.Z.F.c q P.).R R l.<X                ",
"                  3Xl.R T /.(.v # H e.F.F.F.F.J 6 N S $ aXa.. X . . y 8XaXf.M f %.F.F.F.F.M.@ Z.A.I.[.E U j.&X                  ",
"                    ,Xl.R I D.`.%.0 0 &.F.F.F.F.F.Z.[ x A N $ X O O j S c { Z.F.F.F.F.F.&.c V = [./.T I j.+X                    ",
"                      &Xl.E K h.`.d @ H n.F.F.F.F.F.F.;.H Z f u u f Z [ v.F.F.F.F.;.H &.d 3 c ).V.I R l.'.                      ",
"                        :XE.,.k 1.(.J.F.{ H F.F.F.F.F.F.F.F.F.F.F.F.F.F.F.F.N.e.H 7 @ q Z.J.[.5.l ' z.,X                        ",
"                          tXW.0.I R p.].).F.F.F.F.F.F.F.F.F.F.F.F.F.F.F.F.Z - 1 > c H Y.[.m.E P 8.W.<X                          ",
"                              ^.l.' K _ h.[.[./.F.F.F.F.F.F.F.F.F.H H M.u u -.%.v J.[.m.` l _ j.^.                              ",
"                                <XW.i.( I ( 8.C.).[.(.T.G.G.F.F.F.F.F.Y.6 r.[.}.A.0.` I ( w.W.,X                                ",
"                                    2XW.f.] U U ) 2.p.C./.(.[.).).).(.T.Z.h.5.` Y Y ' i.W.%X                                    ",
"                                        ,X[.l.0.' R R E ( _ ' ' >.' ) ( R R R ` 8.j.[.=X                                        ",
"                                              2X[.l.#.#.O.o.O./ / Q ....X.4.l.[.,X                                              ",
"                                                      :XoX'.t.L.L.L.L.oX=X                                                      ",
"                                                                                                                                ",
"                                                                                                                                "
};
