/* XPM */
static char *_f69e2d258c34d54b3b19d0e47c73ff0EPQPcrBe24GwrPhJ[] = {
/* columns rows colors chars-per-pixel */
"32 32 235 2 ",
"   c None",
".  c black",
"X  c #160C01",
"o  c #1F1301",
"O  c #231601",
"+  c #261600",
"@  c #241801",
"#  c #291A01",
"$  c #301B00",
"%  c #342201",
"&  c #3A2100",
"*  c #3C2300",
"=  c #3B2701",
"-  c #3E2902",
";  c #482D01",
":  c #4A3304",
">  c #503200",
",  c #553601",
"<  c #583500",
"1  c #573C04",
"2  c #5E3900",
"3  c #5D3D02",
"4  c #603B00",
"5  c #663E00",
"6  c #5F4004",
"7  c #654304",
"8  c #6D4200",
"9  c #6C4700",
"0  c #694705",
"q  c #6D4A05",
"w  c #6B4F0C",
"e  c #734600",
"r  c #704C05",
"t  c #784A00",
"y  c #7B4D00",
"u  c #7E4E00",
"i  c #775004",
"p  c #7F5200",
"a  c #7C5102",
"s  c #795104",
"d  c #7D5507",
"f  c #73540C",
"g  c #7A5A0D",
"h  c #825100",
"j  c #865200",
"k  c #835400",
"l  c #895400",
"z  c #8A5500",
"x  c #8E5700",
"c  c #865D0A",
"v  c #915A00",
"b  c #925B00",
"n  c #945F00",
"m  c #995F00",
"M  c #9E5D00",
"N  c #8D6004",
"B  c #8A6009",
"V  c #8F620B",
"C  c #8A640F",
"Z  c #956504",
"A  c #9D6200",
"S  c #9E6805",
"D  c #91630A",
"F  c #9C700F",
"G  c #8E6913",
"H  c #9D7110",
"J  c #A16400",
"K  c #A66800",
"L  c #A66B02",
"P  c #A56F00",
"I  c #AB6B00",
"U  c #AF6A00",
"Y  c #BB6800",
"T  c #A87402",
"R  c #A87006",
"E  c #A5720C",
"W  c #AC740B",
"Q  c #A8750D",
"!  c #B57200",
"~  c #B57300",
"^  c #BB7500",
"/  c #BE7700",
"(  c #B17802",
")  c #B37B08",
"_  c #B17A0F",
"`  c #A37713",
"'  c #AC7C13",
"]  c #CE6E00",
"[  c #C47600",
"{  c #CB7400",
"}  c #C47A00",
"|  c #C87D00",
" . c #D97600",
".. c #D47A00",
"X. c #DB7900",
"o. c #DF7F00",
"O. c #E27500",
"+. c #E47700",
"@. c #E47A00",
"#. c #E47C00",
"$. c #E57F00",
"%. c #E87C00",
"&. c #B8800D",
"*. c #B48215",
"=. c #BA8111",
"-. c #BC8312",
";. c #CD8000",
":. c #CE8D00",
">. c #C4820C",
",. c #D08200",
"<. c #D78200",
"1. c #D18500",
"2. c #D78600",
"3. c #D18E00",
"4. c #D88A00",
"5. c #DF8E00",
"6. c #D28D09",
"7. c #D48F0D",
"8. c #D19001",
"9. c #D79206",
"0. c #C28712",
"q. c #C48B15",
"w. c #CD8E13",
"e. c #C8921C",
"r. c #D19316",
"t. c #DE9810",
"y. c #DA9815",
"u. c #DA9A1F",
"i. c #E08400",
"p. c #E38700",
"a. c #E88200",
"s. c #E98300",
"d. c #E88500",
"f. c #EB8400",
"g. c #E98700",
"h. c #EB8900",
"j. c #ED8C00",
"k. c #E09101",
"l. c #E29100",
"z. c #E69100",
"x. c #E79700",
"c. c #E59503",
"v. c #EA9A00",
"b. c #EC9C00",
"n. c #EF9E00",
"m. c #F09300",
"M. c #F19600",
"N. c #F29800",
"B. c #F29A00",
"V. c #F79D00",
"C. c #F49E07",
"Z. c #F39B09",
"A. c #F49C08",
"S. c #E19C15",
"D. c #E59F17",
"F. c #F49E10",
"G. c #F49F12",
"H. c #F59F12",
"J. c #DFA01C",
"K. c #F0A000",
"L. c #F6A000",
"P. c #F7A000",
"I. c #F7A100",
"U. c #F6A303",
"Y. c #F6A600",
"T. c #F9A900",
"R. c #FCAD00",
"E. c #FFB007",
"W. c #F7A512",
"Q. c #F8A513",
"!. c #F8A713",
"~. c #F5A21A",
"^. c #F5A21B",
"/. c #F1A918",
"(. c #F5AC1A",
"). c #F9A819",
"_. c #FAAF1A",
"`. c #FFB311",
"'. c #FFB515",
"]. c #FCB11A",
"[. c #FFB41A",
"{. c #FDB11C",
"}. c #FFB81A",
"|. c #FFB91D",
" X c #D39A21",
".X c #F6A521",
"XX c #F7A523",
"oX c #F7B322",
"OX c #FFBC20",
"+X c #FAAE31",
"@X c #F8AC33",
"#X c #FAB037",
"$X c #F9B138",
"%X c #FFC324",
"&X c #FFC127",
"*X c #FFC426",
"=X c #FFC32B",
"-X c #FFC531",
";X c #FFC739",
":X c #FFC54D",
">X c #FFCA48",
",X c #FFC053",
"<X c #FFC352",
"1X c #FFCD50",
"2X c #FFCE54",
"3X c #FFC25C",
"4X c #FFCA5C",
"5X c #FFCD5E",
"6X c #FFD05C",
"7X c #FFD05E",
"8X c #FFC762",
"9X c #FFCE62",
"0X c #FFD260",
"qX c #FFD262",
"wX c #FFD36D",
"eX c #FFD46D",
"rX c #FFD373",
"tX c #FFD570",
"yX c #FFD573",
"uX c #FFD674",
"iX c #FFD778",
"pX c #FFD878",
"aX c #FFD97D",
"sX c #FFDB85",
"dX c #FFDE8E",
"fX c #FFE095",
"gX c #FFE29C",
"hX c #FFE3A0",
"jX c #FFE6AB",
"kX c #FFE8B0",
"lX c #FFEAB7",
"zX c #FFEFC6",
"xX c #FFF2D4",
"cX c #FFF4DA",
"vX c white",
/* pixels */
"                                                                ",
"                        <X+X^.A.A.^.#X<X                        ",
"                    .Xh.Y i.m.M.M.M.p...g.^.                    ",
"                !.$...4.d J.*.*X*X*.F . l.g.$.W.                ",
"            0Xg.Y 6.. : r.|.|.|.|.|.c 7 : = >.$.s.7X            ",
"          yX+.M = ; Q q 3 a s n k v T D.D 0 ` C <.+.9X          ",
"          +.b . 7 w./.; / | ~ ;./ ;.J , 3 ].0.7 f z.O.iX        ",
"        g.i.# d D.|.y e I 5 u z 3 h b , 8 , |.q O w [ s.        ",
"      ).] : d y.|.].& x.fXY.K.b.b.K.'.x < 5 0.|., = ` a.P.      ",
"      @.R @ i {.|./.u 1X1XhXlXlXkX5X'.m 8 h d |.{./.c 7.+.      ",
"    XX{ . s |.|.|.|.e aXdXaXeXiXuX1X*Xl 5 z 9 |.|.{.+ C h.G.    ",
"    g.> @ -.|.|.|.|.a uX'.uXuXsX1XOX;X| 2 t Z |.|.|.c C L g.    ",
"  8Xs.1 3 {.|.|.|./.~ Y.e U iXR.h n v.b.4 ; ) |.|.|.c X 3 g.4X  ",
"  $Xj.*.w.{.|.|.|.q.5.eX} / R.5.A 1.OXE.5 } P |.|.|.|.D.q.j.@X  ",
"  ~.m.*X|.|.|.|.|.|.7 gX0X-Xc.b.pX;X-Xx.t 5.T |.|.|.|.|.=XM.G.  ",
"  C.M.*X|.|.|.|.|.|.&.2XjXl.l.^ sXpX'.b.A e (.|.|.|.|.|.*XB.B.  ",
"  C.M.*X|.|.|.|.|.|.D.`.gX7Xx.[.>X=X-XT.j ( |.|.|.|.|.|.*XM.B.  ",
"  ~.m.*X|.|.|.|.|.|.].Y.dX4.z L T.*X-X/ t _.|.|.|.|.|.|.` M.G.  ",
"  #Xj.*X|.|.|.|.|.|.|.K.jX4.A J R.'.,.x.y ].|.|.|.|.|.-.# p.+X  ",
"  8Xs.[.OX|.|.|.|.|.|.P gXcXeX5X0XT.| ,.* S.|.|.|.|.-.. d g.3X  ",
"    g.P.J.|.|.|.|.|.|.=.m R.wXfXyX2.m e x 4 |.|.|.|.c . j f.    ",
"    ~.g.g , {.|.|.|.].2 | l./ } I 8 h K j b r |.|./.= # <.A.    ",
"      @.S ' }.|.|.|., K E.| T.R.l.| l.h l./ & > w.q q W @.uX    ",
"      Q. .` 0.|.w.# x , `.'.2.OX*X5.x | zXK - q B . 1 $.V.      ",
"        s.M f 1 ].V @ $ v.vXY.+ 4 b R.cXkX> E E r g } %.        ",
"        iXO.J G # Q ].s L P.L . . ,.xX1.T [.c O - 5.O.wX        ",
"          9XO.U = H y.|._._ ( i r ( &.% B _ c C 2.O.:X          ",
"            7Xa. .a e.*X|.|.|.|.|./.% B X . t.X.$.4X            ",
"                P.$.g.P.|.*X*X*X*.oX+ D x.<.%.C.                ",
"                    G.g.g.j.m.B.B.m.i.o.g.Z.9X                  ",
"                        ,X X9.3.3.8. X,X                        ",
"                                                                "
};
