/* XPM */
static char * C:\Users\vinsk\Desktop\Koodaus\Hallacoin_master\share\pixmaps\hallacoin50000_derivatives\hallacoin50000_32_x_32_xpm[] = {
"32 32 486 2",
"  	c None",
". 	c #906E1A",
"+ 	c #AC841E",
"@ 	c #B78920",
"# 	c #B88C20",
"$ 	c #B0861E",
"% 	c #8B6A1A",
"& 	c #AE841F",
"* 	c #D99818",
"= 	c #D2890F",
"- 	c #DF940F",
"; 	c #E19611",
"> 	c #E59A12",
", 	c #E59B12",
"' 	c #E09610",
") 	c #DF930F",
"! 	c #D28A0F",
"~ 	c #D89617",
"{ 	c #B88B20",
"] 	c #D48E12",
"^ 	c #EFAC1A",
"/ 	c #E3AB1F",
"( 	c #F6BA22",
"_ 	c #FFC123",
": 	c #FFC223",
"< 	c #FCBF23",
"[ 	c #EBB220",
"} 	c #EBB120",
"| 	c #E0940E",
"1 	c #D79012",
"2 	c #B78B1F",
"3 	c #D5991B",
"4 	c #DB8F0D",
"5 	c #EDAD1C",
"6 	c #CE9C1C",
"7 	c #CF9C1C",
"8 	c #DAA51E",
"9 	c #FABD23",
"0 	c #FFC122",
"a 	c #FEC023",
"b 	c #EDB321",
"c 	c #D29F1C",
"d 	c #D39F1D",
"e 	c #F1B11D",
"f 	c #D88E0E",
"g 	c #D6991B",
"h 	c #D49115",
"i 	c #E79E13",
"j 	c #E8B020",
"k 	c #D7A31D",
"l 	c #DFA91F",
"m 	c #CA981B",
"n 	c #936A0F",
"o 	c #946B0F",
"p 	c #8D650E",
"q 	c #9E700E",
"r 	c #9A6F10",
"s 	c #A27713",
"t 	c #C6951A",
"u 	c #F9BC22",
"v 	c #EAB120",
"w 	c #C2931A",
"x 	c #E4AC1F",
"y 	c #E79E14",
"z 	c #D79314",
"A 	c #DA9514",
"B 	c #ECA517",
"C 	c #C4941A",
"D 	c #D4A01D",
"E 	c #FEC123",
"F 	c #EEB521",
"G 	c #573804",
"H 	c #865300",
"I 	c #845200",
"J 	c #784A00",
"K 	c #8D5801",
"L 	c #885501",
"M 	c #8C5701",
"N 	c #7E4E00",
"O 	c #4F3302",
"P 	c #856110",
"Q 	c #F7BB22",
"R 	c #F9BD23",
"S 	c #DFA81E",
"T 	c #D9A31D",
"U 	c #EBA517",
"V 	c #D89314",
"W 	c #D5971A",
"X 	c #E89F15",
"Y 	c #EFB521",
"Z 	c #FFC322",
"` 	c #84610F",
" .	c #503204",
"..	c #6D4706",
"+.	c #7C4D00",
"@.	c #895501",
"#.	c #905A01",
"$.	c #7C4C00",
"%.	c #855300",
"&.	c #6C4301",
"*.	c #412701",
"=.	c #492B00",
"-.	c #6D4F0C",
";.	c #D9A41D",
">.	c #DCA71F",
",.	c #E9A014",
"'.	c #D6971A",
").	c #BC8D1F",
"!.	c #DC910E",
"~.	c #E7AF20",
"{.	c #DDA71E",
"].	c #F8BC22",
"^.	c #4E3302",
"/.	c #A87B18",
"(.	c #F9BB26",
"_.	c #C99923",
":.	c #B88C22",
"<.	c #B58A23",
"[.	c #B58923",
"}.	c #CD900F",
"|.	c #E49602",
"1.	c #794C00",
"2.	c #573500",
"3.	c #432800",
"4.	c #CD9B1C",
"5.	c #CE9B1C",
"6.	c #E8AF20",
"7.	c #DE920E",
"8.	c #BB8C1F",
"9.	c #D38C10",
"0.	c #ECAE1D",
"a.	c #C3931A",
"b.	c #FDBF23",
"c.	c #FEC223",
"d.	c #E9B020",
"e.	c #563703",
"f.	c #FFBC23",
"g.	c #FFBF25",
"h.	c #FFC83C",
"i.	c #FECC4B",
"j.	c #FFCB49",
"k.	c #FEC73B",
"l.	c #FFB514",
"m.	c #E99A00",
"n.	c #875400",
"o.	c #673F00",
"p.	c #553400",
"q.	c #8E6911",
"r.	c #D9A41E",
"s.	c #F0B21E",
"t.	c #D89110",
"u.	c #C39320",
"v.	c #E29710",
"w.	c #C9971B",
"x.	c #EFB420",
"y.	c #593E09",
"z.	c #FFBC21",
"A.	c #FFC22B",
"B.	c #FFCF54",
"C.	c #FFCE54",
"D.	c #FFC63F",
"E.	c #FFB91C",
"F.	c #F0A102",
"G.	c #805001",
"H.	c #6C4200",
"I.	c #5B3701",
"J.	c #78560D",
"K.	c #D6A21D",
"L.	c #E39811",
"M.	c #C09120",
"N.	c #D29014",
"O.	c #EAAA1B",
"P.	c #DCA61F",
"Q.	c #FFC222",
"R.	c #684D0F",
"S.	c #FFC434",
"T.	c #FFC83E",
"U.	c #FFCB46",
"V.	c #FFCB47",
"W.	c #FFC942",
"X.	c #FFC536",
"Y.	c #FFBE27",
"Z.	c #FBAE09",
"`.	c #BF7901",
" +	c #583600",
".+	c #936B11",
"++	c #F0B01D",
"@+	c #D49114",
"#+	c #D78D0E",
"$+	c #DFA81F",
"%+	c #FFC323",
"&+	c #886619",
"*+	c #AC852B",
"=+	c #815F1C",
"-+	c #AD7D13",
";+	c #FFC22C",
">+	c #DEA41F",
",+	c #996A0C",
"'+	c #916E26",
")+	c #CA8C09",
"!+	c #BE7D04",
"~+	c #684100",
"{+	c #4F3000",
"]+	c #AA7F16",
"^+	c #DEA81E",
"/+	c #DCA61E",
"(+	c #DA900E",
"_+	c #A47E1D",
":+	c #DE930F",
"<+	c #BD8E1A",
"[+	c #AA8328",
"}+	c #DCA428",
"|+	c #A17A2C",
"1+	c #C8911E",
"2+	c #DEA626",
"3+	c #BF7F02",
"4+	c #966D1E",
"5+	c #B89449",
"6+	c #E9A719",
"7+	c #E59804",
"8+	c #623E01",
"9+	c #AB6D01",
"0+	c #AF7E12",
"a+	c #FFC023",
"b+	c #F5BA22",
"c+	c #F7BA22",
"d+	c #E1950F",
"e+	c #AA821E",
"f+	c #C5921E",
"g+	c #E79D13",
"h+	c #FBBE23",
"i+	c #624A12",
"j+	c #FFC435",
"k+	c #FFBF2C",
"l+	c #FEBA1D",
"m+	c #D49B1D",
"n+	c #C88602",
"o+	c #F9B520",
"p+	c #F9B61F",
"q+	c #FCB00E",
"r+	c #DF9000",
"s+	c #6A4200",
"t+	c #AE7F13",
"u+	c #FEC222",
"v+	c #C2901F",
"w+	c #CE9720",
"x+	c #EBA416",
"y+	c #A47B16",
"z+	c #FCC53C",
"A+	c #FFC63A",
"B+	c #C69625",
"C+	c #E8AC23",
"D+	c #A87207",
"E+	c #FCC33A",
"F+	c #FFC02D",
"G+	c #F6A909",
"H+	c #D78C01",
"I+	c #744801",
"J+	c #956003",
"K+	c #EBA516",
"L+	c #D49A1F",
"M+	c #D49B21",
"N+	c #D7A21E",
"O+	c #DFAF38",
"P+	c #FFC431",
"Q+	c #E8B128",
"R+	c #BF9024",
"S+	c #E29F13",
"T+	c #FFC12B",
"U+	c #FFBC20",
"V+	c #FAAC09",
"W+	c #DB9001",
"X+	c #815100",
"Y+	c #AD7E12",
"Z+	c #ECA416",
"`+	c #D59B20",
" @	c #C59120",
".@	c #E89F14",
"+@	c #F5B923",
"@@	c #C29A3B",
"#@	c #E7B335",
"$@	c #C69829",
"%@	c #7C5A14",
"&@	c #B17F15",
"*@	c #E6AB23",
"=@	c #EDB428",
"-@	c #F9AE0D",
";@	c #A46900",
">@	c #7D4E01",
",@	c #E8A014",
"'@	c #C4921E",
")@	c #AE831E",
"!@	c #E19610",
"~@	c #D6A11D",
"{@	c #FABE23",
"]@	c #B58D30",
"^@	c #E2AC2B",
"/@	c #D09B21",
"(@	c #A87512",
"_@	c #B07E15",
":@	c #E2AC27",
"<@	c #DEA924",
"[@	c #C68408",
"}@	c #B77200",
"|@	c #784B01",
"1@	c #F1B620",
"2@	c #E39710",
"3@	c #AE821F",
"4@	c #846219",
"5@	c #E5AD1F",
"6@	c #AE821B",
"7@	c #FFC12A",
"8@	c #FEC32E",
"9@	c #FFC32E",
"0@	c #DEAA2C",
"a@	c #ECB328",
"b@	c #E3A418",
"c@	c #B77401",
"d@	c #B57100",
"e@	c #422901",
"f@	c #ECB221",
"g@	c #FEC322",
"h@	c #FEC323",
"i@	c #ECB321",
"j@	c #E4AC1E",
"k@	c #81641C",
"l@	c #CF8B11",
"m@	c #EFB11E",
"n@	c #B88B19",
"o@	c #906812",
"p@	c #FBB519",
"q@	c #FFBE24",
"r@	c #FFB717",
"s@	c #C68505",
"t@	c #A96A01",
"u@	c #6F4500",
"v@	c #744800",
"w@	c #614307",
"x@	c #EAAE1E",
"y@	c #D28D10",
"z@	c #CD971F",
"A@	c #C7961B",
"B@	c #EDB421",
"C@	c #634D1E",
"D@	c #AB7910",
"E@	c #AB7607",
"F@	c #AC7404",
"G@	c #AE7607",
"H@	c #9B6604",
"I@	c #724701",
"J@	c #7B4D01",
"K@	c #925B00",
"L@	c #684001",
"M@	c #613C00",
"N@	c #987013",
"O@	c #FFC124",
"P@	c #CE971E",
"Q@	c #D58A0E",
"R@	c #E2A91E",
"S@	c #E0AA1F",
"T@	c #F8BC23",
"U@	c #6D4C08",
"V@	c #694910",
"W@	c #B7913D",
"X@	c #DD9808",
"Y@	c #F7A906",
"Z@	c #EDA20B",
"`@	c #CA7F00",
" #	c #8F5A01",
".#	c #9E6905",
"+#	c #784B00",
"@#	c #492C01",
"##	c #73520A",
"$#	c #F3B822",
"%#	c #E5AB1E",
"&#	c #D78C0E",
"*#	c #D39A1E",
"=#	c #E49911",
"-#	c #E6AE20",
";#	c #583F08",
">#	c #6D4401",
",#	c #D7AD4B",
"'#	c #C39B3F",
")#	c #AE790E",
"!#	c #EDA30A",
"~#	c #D88C05",
"{#	c #CF8201",
"]#	c #B26F00",
"^#	c #9F700E",
"/#	c #E39401",
"(#	c #764B02",
"_#	c #563401",
":#	c #866310",
"<#	c #CC9A1C",
"[#	c #E49A12",
"}#	c #D2991E",
"|#	c #D38F12",
"1#	c #E8A619",
"2#	c #F3B821",
"3#	c #936E13",
"4#	c #362201",
"5#	c #573600",
"6#	c #A67D1A",
"7#	c #FFC32C",
"8#	c #F2BA34",
"9#	c #4B3103",
"0#	c #7D5100",
"a#	c #8D5E0C",
"b#	c #BD8C22",
"c#	c #F8AA05",
"d#	c #F2A201",
"e#	c #583C06",
"f#	c #A97F17",
"g#	c #F1B621",
"h#	c #C9981B",
"i#	c #EBA91A",
"j#	c #D79113",
"k#	c #95711D",
"l#	c #D0890F",
"m#	c #EEAD1C",
"n#	c #C6961B",
"o#	c #E0A91F",
"p#	c #87600F",
"q#	c #8A5F05",
"r#	c #B48314",
"s#	c #78560E",
"t#	c #0A0501",
"u#	c #070400",
"v#	c #876212",
"w#	c #F4AE14",
"x#	c #C18403",
"y#	c #B48311",
"z#	c #E0A91E",
"A#	c #F0AF1D",
"B#	c #D68C0E",
"C#	c #93711C",
"D#	c #AA831F",
"E#	c #D38A0E",
"F#	c #F1AE1B",
"G#	c #D19E1C",
"H#	c #C4931A",
"I#	c #C69725",
"J#	c #795A10",
"K#	c #795B10",
"L#	c #C5941E",
"M#	c #CD9A1C",
"N#	c #FABD22",
"O#	c #F0AD1B",
"P#	c #D48B0E",
"Q#	c #A67D1D",
"R#	c #9F7A1D",
"S#	c #D38D12",
"T#	c #E59C13",
"U#	c #C3931B",
"V#	c #E9B021",
"W#	c #E3AC1F",
"X#	c #E69D13",
"Y#	c #D69012",
"Z#	c #9F781B",
"`#	c #D2991D",
" $	c #D3890D",
".$	c #E8A115",
"+$	c #E7AD1F",
"@$	c #D09D1C",
"#$	c #D8A31D",
"$$	c #E6AD1E",
"%$	c #EAA315",
"&$	c #D98D0D",
"*$	c #CF961C",
"=$	c #8A6B1B",
"-$	c #D99D1C",
";$	c #D1890F",
">$	c #EFA818",
",$	c #F2AE1A",
"'$	c #F2AE1B",
")$	c #EEA818",
"!$	c #DD920E",
"~$	c #DA9C1C",
"{$	c #886519",
"]$	c #94731D",
"^$	c #C2911F",
"/$	c #DB9D1E",
"($	c #DF9E16",
"_$	c #D89C1D",
":$	c #C4911F",
"<$	c #95721D",
"                                                                ",
"                          . + @ # $ %                           ",
"                    & * = - ; > , ' ) ! ~ &                     ",
"                { ] ) ^ / ( _ : _ < [ } ^ | 1 2                 ",
"              3 4 5 6 7 8 9 0 _ : a b 8 c d e f g               ",
"            h i j k l m n o p q r s t ( u v w x y z             ",
"          A B C D E F G H I J K L M N O P Q R S T U V           ",
"        W X l Y : Z `  ...+.@.#.$.%.&.*.=.-.: a ;.>.,.'.        ",
"      ).!.~.{.: : ].^./.(._.:.<.[.}.|.1.2.3.4._ E 5.6.7.8.      ",
"      9.0.a.b.: c.d.e.f.g.h.i.j.k.l.m.n.o.p.q.: : E r.s.t.      ",
"    u.v.w.x.: : : _ y.z.A.j.B.C.D.E.F.G.H.I.J.: : : r.K.L.M.    ",
"    N.O.P.: : : Q.: R.S.T.U.V.W.X.Y.Z.`. +2..+: : : _ C ++@+    ",
"    #+$+d.Q.c.%+_ ~.&+*+=+-+;+>+,+'+)+!+~+{+]+0 : : c.^+/+(+    ",
"  _+:+Q _ : : : Q.<+[+}+|+1+2+3+4+5+6+7+8+9+0+%+: : a+b+c+d+e+  ",
"  f+g+: : : : : Q.h+i+j+k+l+m+n+o+p+q+r+s+`.t+: : _ Q.: u+i v+  ",
"  w+x+: _ : c._ c.: y+z+A+B+C+D+E+F+G+H+I+J+/ _ Q.: _ : : K+L+  ",
"  M+x+_ : : : a+: Q.N+O+P+Q+R+S+T+U+V+W+X+Y+: : : _ : Z : Z+`+  ",
"   @.@Q : : : %+: : +@@@#@$@%@&@*@=@-@;@>@< : : : %+: : Q ,@'@  ",
"  )@!@~@{@: _ : _ : 0 ]@^@/@(@_@:@<@[@}@|@< _ c._ Q.: 1@^+2@3@  ",
"  4@(+[ 5@E : : : Q.: 6@7@8@9@0@a@b@c@d@e@f@_ g@Q.h@: i@j@7.k@  ",
"    l@m@K.a+: : c.: : n@o@p@q@g.r@s@t@u@v@w@b.: : c.: r.x@y@    ",
"    z@g+A@Q _ _ : : B@C@D@E@F@G@H@I@J@K@L@M@N@O@%+: d.a.i P@    ",
"      Q@R@S@: _ _ T@U@V@W@X@Y@Y@Z@`@d@ #.#+#@###$#0 K.%#&#      ",
"      *#=#6 -#: f@;#L@>#,#'#)#!#~#{#]#^#/#(#_#:#_ -#<#[#}#      ",
"        |#1#D 2#a+3#4#5#6#7#8#9#0#a#b#c#d#e#f#_ g#h#i#j#        ",
"        k#l#m#n#o#: ^+p#q#r#s#t#u#v#w#x#y#6.E z#8 A#B#C#        ",
"          D#E#F#a.G#( %+c+H#I#J#K#L#M#N#: ( 7 M#O#P#Q#          ",
"            R#S#T#S U#8 b {@_ c.: : h+V#W#h#} X#Y#Z#            ",
"                `# $.$+$@$#$Q %+: u d c $$%$&$*$                ",
"                  =$-$;$7.X#>$,$'$)$X#!$! ~${$                  ",
"                        ]$^$/$($($_$:$<$                        ",
"                                                                "};
